Patient4_TMGait_0pt4_01_right_15_GRF.mot
version=1
nRows=65
nColumns=19
inDegrees=no
endheader
time	F1x	F1y	F1z	M1x	M1y	M1z	F2x	F2y	F2z	M2x	M2y	M2z	EC1x	EC1y	EC1z	EC2x	EC2y	EC2z
19.33	-1.93	769.6275	60.4228	-245.3602	-57.7048	762.2683	15.2103	33.3118	-5.7708	8.8326	1.0393	36.2886	-0.0592	0.0182	-0.0073	-0.0462	0.0165	0.9585
19.343	3.7186	767.8771	60.9395	-244.1403	-55.9849	761.7834	10.3995	23.192	-3.9948	6.2796	0.77865	25.2179	-0.0592	0.0182	-0.0073	-0.0462	0.0165	0.9585
19.356	8.8465	764.882	61.3602	-242.4983	-54.2761	759.315	6.3095	14.7359	-2.4952	4.143	0.56804	15.9791	-0.0592	0.0182	-0.0073	-0.0462	0.0165	0.9585
19.369	13.1972	760.968	61.6347	-240.5769	-52.6359	755.098	3.1796	8.4066	-1.3609	2.544	0.41889	9.0699	-0.0592	0.0182	-0.0073	-0.0462	0.0165	0.9585
19.382	16.7489	756.6256	61.7248	-238.5615	-51.0584	749.6659	1.0114	4.1104	-0.58467	1.461	0.3242	4.3762	-0.0592	0.0182	-0.0073	-0.0462	0.0165	0.9585
19.395	19.5863	752.3199	61.6456	-236.6165	-49.5475	743.612	-0.35685	1.521	-0.11656	0.80998	0.28316	1.5539	-0.0592	0.0182	-0.0073	-0.0462	0.0165	0.9585
19.408	21.8512	748.4097	61.39	-234.863	-48.065	737.437	-1.0839	0.1988	0.11584	0.47573	0.27629	0.11532	-0.0592	0.0182	-0.0073	-0.0462	0.0165	0.9585
19.421	23.6887	745.1226	61.013	-233.3672	-46.6277	731.5128	-1.3802	-0.30278	0.18143	0.33871	0.29997	-0.41116	-0.0592	0.0182	-0.0073	-0.0462	0.0165	0.9585
19.434	25.2478	742.5388	60.5552	-232.1451	-45.2376	726.0471	-1.402	-0.38492	0.14217	0.28857	0.34211	-0.46815	-0.0592	0.0182	-0.0073	-0.0462	0.0165	0.9585
19.447	26.6262	740.6113	60.0893	-231.1708	-43.9347	721.1073	-1.2685	-0.36322	0.038104	0.23102	0.39943	-0.40536	-0.0592	0.0182	-0.0073	-0.0462	0.0165	0.9585
19.46	27.9319	739.2515	59.6433	-230.406	-42.7145	716.6633	-1.0819	-0.50099	-0.090912	0.082612	0.46213	-0.51229	-0.0592	0.0182	-0.0073	-0.0462	0.0165	0.9585
19.473	29.2416	738.3724	59.2597	-229.812	-41.5925	712.6567	-0.89021	-1.0035	-0.22192	-0.22419	0.52463	-1.0195	-0.0592	0.0182	-0.0073	-0.0462	0.0165	0.9585
19.486	30.642	737.9267	58.9517	-229.3639	-40.5557	709.0187	-0.72875	-1.9635	-0.33509	-0.72121	0.57945	-2.0215	-0.0592	0.0182	-0.0073	-0.0462	0.0165	0.9585
19.499	32.2092	737.9311	58.7526	-229.056	-39.6059	705.7281	-0.59031	-3.4106	-0.41898	-1.4118	0.61304	-3.5617	-0.0592	0.0182	-0.0073	-0.0462	0.0165	0.9585
19.512	34.0271	738.4436	58.6735	-228.8961	-38.7206	702.8003	-0.48098	-5.2126	-0.45147	-2.2371	0.59897	-5.4973	-0.0592	0.0182	-0.0073	-0.0462	0.0165	0.9585
19.525	36.1488	739.4997	58.7381	-228.8843	-37.897	700.2447	-0.3642	-7.0502	-0.41866	-3.0592	0.50727	-7.4982	-0.0592	0.0182	-0.0073	-0.0462	0.0165	0.9585
19.538	38.589	741.0783	58.9496	-229.004	-37.1301	698.0392	-0.22595	-8.3513	-0.28757	-3.6291	0.29618	-8.9537	-0.0592	0.0182	-0.0073	-0.0462	0.0165	0.9585
19.551	41.3319	743.0073	59.3082	-229.1931	-36.4248	696.048	-0.050758	-8.2322	-0.029888	-3.5591	-0.070078	-8.9102	-0.0592	0.0182	-0.0073	-0.0462	0.0165	0.9585
19.564	44.2961	744.8793	59.7749	-229.3167	-35.7688	693.9775	0.19853	-5.4398	0.38484	-2.2985	-0.62878	-6.0141	-0.0592	0.0182	-0.0073	-0.0462	0.0165	0.9585
19.577	47.379	745.9877	60.2979	-229.1467	-35.1462	691.2845	0.52412	1.623	0.96872	0.85517	-1.3821	1.4699	-0.0592	0.0182	-0.0073	-0.0462	0.0165	0.9585
19.59	50.4269	745.3532	60.8099	-228.3723	-34.5401	687.2017	0.92784	14.7716	1.722	6.7027	-2.315	15.5036	-0.0592	0.0182	-0.0073	-0.0462	0.0165	0.9585
19.603	53.2454	741.8141	61.2116	-226.6346	-33.9276	680.8013	1.3755	35.8133	2.5792	16.0292	-3.3312	38.0611	-0.0592	0.0182	-0.0073	-0.0462	0.0165	0.9585
19.616	55.5904	734.1561	61.3434	-223.5713	-33.256	671.094	1.7958	65.9974	3.4109	29.3733	-4.2471	70.5276	-0.0592	0.0182	-0.0073	-0.0462	0.0165	0.9585
19.629	57.242	721.2333	60.9859	-218.8535	-32.4188	657.1215	1.9717	105.3043	3.9625	46.7082	-4.6905	112.9493	-0.0592	0.0182	-0.0073	-0.0462	0.0165	0.9585
19.642	58.0468	702.0526	59.9102	-212.2149	-31.276	638.0265	1.2922	151.6219	3.8823	67.0686	-4.024	163.1217	-0.0592	0.0182	-0.0073	-0.0462	0.0165	0.9585
19.655	57.9313	675.9737	57.9311	-203.5115	-29.7013	613.227	-1.2286	200.2923	2.6509	88.3723	-1.3153	216.1138	-0.0592	0.0182	-0.0073	-0.0462	0.0165	0.9585
19.668	56.9052	642.8735	54.9729	-192.765	-27.627	582.5375	-6.137	245.8751	0.055999	108.2106	3.8319	266.1673	-0.0592	0.0182	-0.0073	-0.0462	0.0165	0.9585
19.681	55.0168	603.1868	51.1168	-180.1581	-25.0981	546.2505	-12.9627	285.232	-3.7841	125.1949	11.0645	309.8877	-0.0592	0.0182	-0.0073	-0.0462	0.0165	0.9585
19.694	52.3297	557.7629	46.6077	-165.977	-22.2855	505.0372	-20.7564	318.6591	-8.4032	139.4585	19.489	347.454	-0.0592	0.0182	-0.0073	-0.0462	0.0165	0.9585
19.707	48.9488	507.7567	41.75	-150.576	-19.3976	459.86	-28.4281	348.4895	-13.2733	152.0534	28.1	381.1498	-0.0592	0.0182	-0.0073	-0.0462	0.0165	0.9585
19.72	44.9688	454.5559	36.7932	-134.362	-16.5985	411.9049	-35.1739	377.577	-17.947	164.2673	36.0968	413.8403	-0.0592	0.0182	-0.0073	-0.0462	0.0165	0.9585
19.733	40.4624	399.7208	31.933	-117.7815	-14.0208	362.5228	-40.5276	408.2684	-22.2215	177.1596	43.0756	447.8782	-0.0592	0.0182	-0.0073	-0.0462	0.0165	0.9585
19.746	35.4551	344.8807	27.2976	-101.2993	-11.7601	313.1631	-44.3317	441.9588	-26.1592	191.3501	49.0335	484.6437	-0.0592	0.0182	-0.0073	-0.0462	0.0165	0.9585
19.759	29.9843	291.6298	22.9952	-85.3732	-9.8998	265.2445	-46.6633	478.9586	-30.0361	206.9669	54.2784	524.4027	-0.0592	0.0182	-0.0073	-0.0462	0.0165	0.9585
19.772	24.1251	241.5461	19.1126	-70.457	-8.4978	220.1813	-47.7655	518.6361	-34.0754	223.7268	59.1308	566.4601	-0.0592	0.0182	-0.0073	-0.0462	0.0165	0.9585
19.785	18.0594	196.043	15.7388	-56.9556	-7.5838	179.223	-48.0206	559.648	-38.3478	241.0458	63.8151	609.4043	-0.0592	0.0182	-0.0073	-0.0462	0.0165	0.9585
19.798	12.0771	156.1715	12.9339	-45.167	-7.1265	143.2841	-47.8128	600.2235	-42.7262	258.1695	68.3646	651.3887	-0.0592	0.0182	-0.0073	-0.0462	0.0165	0.9585
19.811	6.4889	122.4254	10.7447	-35.2245	-7.0676	112.783	-47.4692	638.5409	-47.0041	274.3272	72.7022	690.5465	-0.0592	0.0182	-0.0073	-0.0462	0.0165	0.9585
19.824	1.5595	94.6767	9.1175	-27.0811	-7.2765	87.5929	-47.185	673.0382	-50.9716	288.8635	76.692	725.2757	-0.0592	0.0182	-0.0073	-0.0462	0.0165	0.9585
19.837	-2.5593	72.2895	7.9438	-20.5407	-7.6074	67.1593	-47.0265	702.6905	-54.4834	301.3477	80.2099	754.5348	-0.0592	0.0182	-0.0073	-0.0462	0.0165	0.9585
19.85	-5.7361	54.3811	7.0594	-15.3383	-7.8777	50.6993	-46.9477	727.0964	-57.4096	311.6179	83.1021	777.9061	-0.0592	0.0182	-0.0073	-0.0462	0.0165	0.9585
19.863	-7.8875	40.0481	6.3045	-11.2044	-7.9253	37.4422	-46.8219	746.4277	-59.6864	319.7497	85.2481	795.5593	-0.0592	0.0182	-0.0073	-0.0462	0.0165	0.9585
19.876	-8.9201	28.5048	5.5248	-7.9054	-7.5958	26.7094	-46.4627	761.2311	-61.3125	325.9684	86.5711	808.0589	-0.0592	0.0182	-0.0073	-0.0462	0.0165	0.9585
19.889	-8.7987	19.1866	4.6249	-5.2692	-6.8014	18.0204	-45.7038	772.1773	-62.3797	330.5464	87.0929	816.118	-0.0592	0.0182	-0.0073	-0.0462	0.0165	0.9585
19.902	-7.6207	11.7686	3.5826	-3.1927	-5.5575	11.0924	-44.4438	779.9025	-63.017	333.7347	86.9016	820.4522	-0.0592	0.0182	-0.0073	-0.0462	0.0165	0.9585
19.915	-5.7985	6.1558	2.5045	-1.639	-4.0829	5.848	-42.6683	784.9026	-63.3711	335.7163	86.1425	821.6791	-0.0592	0.0182	-0.0073	-0.0462	0.0165	0.9585
19.928	-3.8644	2.2762	1.5603	-0.57796	-2.6877	2.2342	-40.4589	787.4634	-63.5459	336.5924	84.954	820.2272	-0.0592	0.0182	-0.0073	-0.0462	0.0165	0.9585
19.941	-2.1312	-0.13548	0.82388	0.069019	-1.5299	0.0024856	-37.9284	787.7814	-63.6285	336.4356	83.4698	816.4337	-0.0592	0.0182	-0.0073	-0.0462	0.0165	0.9585
19.954	-0.76191	-1.4221	0.30171	0.4032	-0.66044	-1.1593	-35.1832	786.1625	-63.6663	335.3721	81.7875	810.7252	-0.0592	0.0182	-0.0073	-0.0462	0.0165	0.9585
19.967	0.22738	-1.9111	-0.038697	0.52086	-0.054643	-1.5823	-32.3326	783.0504	-63.712	333.5959	80.0122	803.6348	-0.0592	0.0182	-0.0073	-0.0462	0.0165	0.9585
19.98	0.86385	-1.8814	-0.2288	0.50348	0.32267	-1.5248	-29.4963	778.9997	-63.793	331.3534	78.2303	795.775	-0.0592	0.0182	-0.0073	-0.0462	0.0165	0.9585
19.993	1.2229	-1.5654	-0.31401	0.41361	0.52802	-1.2017	-26.7811	774.6165	-63.929	328.9141	76.5197	787.7695	-0.0592	0.0182	-0.0073	-0.0462	0.0165	0.9585
20.006	1.3756	-1.1205	-0.31846	0.293	0.60053	-0.75958	-24.2836	770.4642	-64.0956	326.5343	74.9112	780.1678	-0.0592	0.0182	-0.0073	-0.0462	0.0165	0.9585
20.019	1.3897	-0.65351	-0.27647	0.16909	0.58745	-0.30405	-22.043	766.9585	-64.2628	324.4118	73.4056	773.3406	-0.0592	0.0182	-0.0073	-0.0462	0.0165	0.9585
20.032	1.3223	-0.25932	-0.19948	0.067482	0.51596	0.069916	-20.0263	764.3274	-64.3855	322.66	71.9595	767.453	-0.0592	0.0182	-0.0073	-0.0462	0.0165	0.9585
20.045	1.2041	0.0085088	-0.10409	0.0052276	0.40796	0.31871	-18.1663	762.5748	-64.4368	321.294	70.5317	762.4441	-0.0592	0.0182	-0.0073	-0.0462	0.0165	0.9585
20.058	1.0622	0.08986	0.0065806	-0.00083287	0.27156	0.37687	-16.3963	761.4895	-64.3941	320.236	69.0803	758.0521	-0.0592	0.0182	-0.0073	-0.0462	0.0165	0.9585
20.071	0.90682	-0.073964	0.12453	0.064327	0.11438	0.18789	-14.6515	760.6927	-64.2619	319.335	67.5883	753.8719	-0.0592	0.0182	-0.0073	-0.0462	0.0165	0.9585
20.084	0.74615	-0.54058	0.25176	0.2133	-0.062356	-0.31314	-12.8904	759.6954	-64.034	318.398	66.0378	749.4109	-0.0592	0.0182	-0.0073	-0.0462	0.0165	0.9585
20.097	0.5856	-1.3624	0.38188	0.45802	-0.24927	-1.1849	-11.0895	758.0091	-63.6985	317.2338	64.4106	744.1839	-0.0592	0.0182	-0.0073	-0.0462	0.0165	0.9585
20.11	0.43437	-2.5687	0.493	0.8074	-0.41751	-2.466	-9.1837	755.2726	-63.2404	315.6984	62.6708	737.8179	-0.0592	0.0182	-0.0073	-0.0462	0.0165	0.9585
20.123	0.32107	-4.1249	0.55516	1.251	-0.52208	-4.1274	-7.0998	751.3155	-62.6866	313.7216	60.8143	730.1224	-0.0592	0.0182	-0.0073	-0.0462	0.0165	0.9585
20.136	0.29034	-5.8876	0.50982	1.7466	-0.48633	-6.0183	-4.7574	746.1906	-62.1012	311.324	58.8626	721.1112	-0.0592	0.0182	-0.0073	-0.0462	0.0165	0.9585
20.149	0.42141	-7.571	0.28718	2.2096	-0.21362	-7.8444	-2.0595	740.2029	-61.5766	308.6246	56.8548	711.0477	-0.0592	0.0182	-0.0073	-0.0462	0.0165	0.9585
20.162	0.80693	-8.6567	-0.21019	2.4851	0.42484	-9.0624	1.0737	733.8116	-61.1831	305.8059	54.8161	700.3452	-0.0592	0.0182	-0.0073	-0.0462	0.0165	0.9585
